HIERARCHY
ROOT hip
{
  OFFSET 0 0 0
  CHANNELS 6 Xposition Yposition Zposition Zrotation Yrotation Xrotation
  JOINT abdomen
  {
    OFFSET 0 20.6881 -0.73152
    CHANNELS 3 Zrotation Xrotation Yrotation
    JOINT chest
    {
      OFFSET 0 11.7043 -0.48768
      CHANNELS 3 Zrotation Xrotation Yrotation
      JOINT neck
      {
        OFFSET 0 22.1894 -2.19456
        CHANNELS 3 Zrotation Xrotation Yrotation
        JOINT head
        {
          OFFSET -0.24384 7.07133 1.2192
          CHANNELS 3 Zrotation Xrotation Yrotation
          JOINT leftEye
          {
            OFFSET 4.14528 8.04674 8.04672
            CHANNELS 3 Zrotation Xrotation Yrotation
            End Site
            {
              OFFSET 1 0 0
            }
          }
          JOINT rightEye
          {
            OFFSET -3.6576 8.04674 8.04672
            CHANNELS 3 Zrotation Xrotation Yrotation
            End Site
            {
              OFFSET 1 0 0
            }
          }
        }
      }
      JOINT rCollar
      {
        OFFSET -2.68224 19.2634 -4.8768
        CHANNELS 3 Zrotation Xrotation Yrotation
        JOINT rShldr
        {
          OFFSET -8.77824 -1.95073 1.46304
          CHANNELS 3 Zrotation Xrotation Yrotation
          JOINT rForeArm
          {
            OFFSET -28.1742 -1.7115 0.48768
            CHANNELS 3 Zrotation Xrotation Yrotation
            JOINT rHand
            {
              OFFSET -22.5879 0.773209 7.07136
              CHANNELS 3 Zrotation Xrotation Yrotation
              JOINT rThumb1
              {
                OFFSET -1.2192 -0.487915 3.41376
                CHANNELS 3 Zrotation Xrotation Yrotation
                JOINT rThumb2
                {
                  OFFSET -3.37035 -0.52449 3.41376
                  CHANNELS 3 Zrotation Xrotation Yrotation
                  End Site
                  {
                    OFFSET -1.78271 -1.18214 1.43049
                  }
                }
              }
              JOINT rIndex1
              {
                OFFSET -7.75947 0.938293 5.60832
                CHANNELS 3 Zrotation Xrotation Yrotation
                JOINT rIndex2
                {
                  OFFSET -2.54057 -0.884171 1.56538
                  CHANNELS 3 Zrotation Xrotation Yrotation
                  End Site
                  {
                    OFFSET -1.62519 -0.234802 1.16502
                  }
                }
              }
              JOINT rMid1
              {
                OFFSET -8.24714 1.18213 3.41376
                CHANNELS 3 Zrotation Xrotation Yrotation
                JOINT rMid2
                {
                  OFFSET -3.10165 -0.590103 1.0647
                  CHANNELS 3 Zrotation Xrotation Yrotation
                  End Site
                  {
                    OFFSET -2.48547 -0.328903 0.83742
                  }
                }
              }
              JOINT rRing1
              {
                OFFSET -8.82822 0.546677 1.51678
                CHANNELS 3 Zrotation Xrotation Yrotation
                JOINT rRing2
                {
                  OFFSET -2.60934 -0.819778 -0.0198488
                  CHANNELS 3 Zrotation Xrotation Yrotation
                  End Site
                  {
                    OFFSET -2.33842 -0.294052 0.168128
                  }
                }
              }
              JOINT rPinky1
              {
                OFFSET -8.27202 -0.0477905 -0.4584
                CHANNELS 3 Zrotation Xrotation Yrotation
                JOINT rPinky2
                {
                  OFFSET -1.82734 -0.647385 -0.700984
                  CHANNELS 3 Zrotation Xrotation Yrotation
                  End Site
                  {
                    OFFSET -1.69225 -0.51767 -0.607171
                  }
                }
              }
            }
          }
        }
      }
      JOINT lCollar
      {
        OFFSET 2.68224 19.2634 -4.8768
        CHANNELS 3 Zrotation Xrotation Yrotation
        JOINT lShldr
        {
          OFFSET 8.77824 -1.95073 1.46304
          CHANNELS 3 Zrotation Xrotation Yrotation
          JOINT lForeArm
          {
            OFFSET 28.1742 -1.7115 0.48768
            CHANNELS 3 Zrotation Xrotation Yrotation
            JOINT lHand
            {
              OFFSET 22.5879 0.773209 7.07136
              CHANNELS 3 Zrotation Xrotation Yrotation
              JOINT lThumb1
              {
                OFFSET 1.2192 -0.487915 3.41376
                CHANNELS 3 Zrotation Xrotation Yrotation
                JOINT lThumb2
                {
                  OFFSET 3.37035 -0.52449 3.41376
                  CHANNELS 3 Zrotation Xrotation Yrotation
                  End Site
                  {
                    OFFSET 1.78271 -1.18214 1.43049
                  }
                }
              }
              JOINT lIndex1
              {
                OFFSET 7.75947 0.938293 5.60832
                CHANNELS 3 Zrotation Xrotation Yrotation
                JOINT lIndex2
                {
                  OFFSET 2.54057 -0.884171 1.56538
                  CHANNELS 3 Zrotation Xrotation Yrotation
                  End Site
                  {
                    OFFSET 1.62519 -0.234802 1.16502
                  }
                }
              }
              JOINT lMid1
              {
                OFFSET 8.24714 1.18213 3.41376
                CHANNELS 3 Zrotation Xrotation Yrotation
                JOINT lMid2
                {
                  OFFSET 3.10165 -0.590103 1.0647
                  CHANNELS 3 Zrotation Xrotation Yrotation
                  End Site
                  {
                    OFFSET 2.48547 -0.328903 0.83742
                  }
                }
              }
              JOINT lRing1
              {
                OFFSET 8.82822 0.546677 1.51678
                CHANNELS 3 Zrotation Xrotation Yrotation
                JOINT lRing2
                {
                  OFFSET 2.60934 -0.819778 -0.0198488
                  CHANNELS 3 Zrotation Xrotation Yrotation
                  End Site
                  {
                    OFFSET 2.33842 -0.294052 0.168128
                  }
                }
              }
              JOINT lPinky1
              {
                OFFSET 8.27202 -0.0477905 -0.4584
                CHANNELS 3 Zrotation Xrotation Yrotation
                JOINT lPinky2
                {
                  OFFSET 1.82734 -0.647385 -0.700984
                  CHANNELS 3 Zrotation Xrotation Yrotation
                  End Site
                  {
                    OFFSET 1.69225 -0.51767 -0.607171
                  }
                }
              }
            }
          }
        }
      }
    }
  }
  JOINT rButtock
  {
    OFFSET -8.77824 4.35084 1.2192
    CHANNELS 3 Zrotation Xrotation Yrotation
    JOINT rThigh
    {
      OFFSET 0 -1.70687 -2.19456
      CHANNELS 3 Zrotation Xrotation Yrotation
      JOINT rShin
      {
        OFFSET 0 -36.8199 0.73152
        CHANNELS 3 Zrotation Xrotation Yrotation
        JOINT rFoot
        {
          OFFSET 0.73152 -45.1104 -5.12064
          CHANNELS 3 Zrotation Xrotation Yrotation
          End Site
          {
            OFFSET -1.1221 -3.69964 12.103
          }
        }
      }
    }
  }
  JOINT lButtock
  {
    OFFSET 8.77824 4.35084 1.2192
    CHANNELS 3 Zrotation Xrotation Yrotation
    JOINT lThigh
    {
      OFFSET 0 -1.70687 -2.19456
      CHANNELS 3 Zrotation Xrotation Yrotation
      JOINT lShin
      {
        OFFSET 0 -36.8199 0.73152
        CHANNELS 3 Zrotation Xrotation Yrotation
        JOINT lFoot
        {
          OFFSET -0.73152 -45.1104 -5.12064
          CHANNELS 3 Zrotation Xrotation Yrotation
          End Site
          {
            OFFSET 1.1221 -3.69964 12.103
          }
        }
      }
    }
  }
}
MOTION
Frames:	4
Frame Time:	0.03333
-9.392540529370308 83.24151635169983 124.81298176571727 8.83011978541126 -20.768189086589885 -31.49555271587039 -12.334195513603623 48.32787773663898 19.706082717821854 -5.202730114396194 -5.40472869023109 2.9849183854649826 -7.72382806912877 15.187630836555156 -3.9676778063147404 8.846715437547099 -19.37494490157588 -7.075531272546901 0.01209242303868445 0.12043709916080507 0.18235040276923026 0.06210680340122016 -0.011876151501918343 -0.1254905586925418 0.0077562267512916085 0.0667307881084659 0.2449696704613997 31.307538098587447 46.419188203268085 25.767226738237017 -24.48304018370061 -22.51185612697139 54.39005311561882 0.3966592873453766 7.0029775880884415 0.8708149682307756 0.023974390873567883 0.1272748655719283 -0.1383513780128527 0.041284384747054495 0.09184870205948202 0.02367669067529053 -0.25932446026051864 0.4549448133493862 -0.19495419620137974 7.636728643059122 4.912952935556056 -0.028885190165101268 0.13104923877944794 -0.2499551215861272 0.2821512192709657 2.7616691701314733 0.7276408096532329 0.06714033265440221 0.052151162355691894 0.16651718383970765 -0.19199576379541217 9.78065330653984 0.8304166404459716 -0.05751934419777812 -0.10731369108341893 0.12099893558089152 0.19445792692928277 2.0670090494635573 -0.29814138580905314 0.13935360155184628 -0.3974046050581278 -0.2567031083622618 -0.09266250842691846 -69.37638290940806 28.275709333572582 -1.8363578300604582 25.839836771756133 -24.536073187511175 -58.54265786682483 1.36457585335505 -21.612163118929804 2.635349944073965 0.029919910463505308 0.3734749038988559 -0.01734062300304589 0.06597044931562597 -0.24278224901885023 0.1782023034882772 0.030205444387323577 -0.09878046361297226 -0.14207535189481704 -7.742638410102986 5.705522110428812 -0.09828311378360426 0.43388771366420714 -0.159560956335167 -0.27317656414498054 -2.5905129538240046 0.5553040911972628 -0.14604579955628363 0.14440882199172841 -0.027832380537567272 0.04770550961880695 -10.389508321985824 0.3460189308175798 0.6190210049736077 0.2201268317070353 0.07099351984164144 -0.2959175189039793 -1.9229336794415433 -0.28808798768102906 0.12427353104023661 0.6466011487595604 -0.5019322459708426 -0.22126339119318128 -0.8049868856706621 3.453395724550868 0.6158218083993972 0.33486640584171257 48.45113533040103 -0.25333713244234135 -8.242938667749018 -12.8567954851161 -15.61555243334021 0.12172128144647325 -0.33671397201220105 0.10981055211188172 125.2465038672228 -80.39846407873274 91.85956931733833 -1.4839072622831064 47.259523452327684 0.42897718117693817 2.713977374251859 -3.85381343020875 13.487288539852685
-9.492996241897345 84.44262742996216 126.88890276476741 7.727851904323554 -19.29987429240827 -31.79669575637625 -11.384360379317677 46.745807849378096 18.646986754930506 -5.03060763976458 -4.400177764277818 2.974729023883793 -7.760362750999168 14.716066038521014 -3.9822764818919962 9.588990514466465 -18.9699659102129 -6.430921924343193 0.11611262892083497 0.09839629215258548 0.1149491355441924 0.023930314809080144 0.008318156552870607 -0.32314342666801704 0.20442319960875782 -0.030427425535348992 0.16741424647786685 32.370189174941785 47.24129026233833 24.175181359693333 -24.790354300121578 -23.535218247672525 56.23155066302971 0.5082660724872659 6.473940163283226 1.985054890273044 0.02635001604426294 0.169566062891325 -0.05214051686554019 -0.07597534242837238 0.11389601909175427 -0.12093372861865904 -0.2617698814267948 0.4549798180688825 0.05438751570034216 7.807940141210185 4.857598948088158 -0.025279704056980788 0.3335500469617513 -0.13404019462525238 0.28387093283792797 2.6670887659299565 0.6969698985461434 0.05481386891493905 -0.04410877469056055 0.15196162383158737 -0.11251765490073395 10.136084398116255 0.509573733548206 0.1325413416284048 0.14091886213011637 0.1656085018758315 0.09542562677109273 1.8757202102472417 -0.24129852382379718 0.26194343760082184 -0.47866333893334306 -0.3912970018775348 -0.02014201441895604 -69.16918229074656 26.980194910297705 -1.36366765163885 26.084917619554528 -25.194554649919176 -58.6334310808943 1.6680876888424374 -20.550113099222425 1.8294550701305141 -0.13240102926572866 0.4766908016453845 0.14250981595905332 0.041931064923237185 -0.2085793830589238 0.29656809442242305 -0.019071382266556542 -0.08762276263437463 -0.024322036830150953 -7.470742239623118 5.891458215769953 -0.04983978365187726 0.46082576630732586 -0.030806981281960716 -0.21968332297823404 -2.801042649375658 0.6940957762877433 -0.10243717613986783 0.10370655078885883 -0.013821955002578616 -0.09333664276191343 -10.676258446363176 0.37747301916254633 0.5169898248829589 0.17157624626099793 0.07774388117572967 -0.5688516646942773 -1.9078176170346588 0.03147980827605986 -0.11523100090937442 0.5177482426850948 -0.45457171426597426 -0.5312317297977875 -0.3395380951514426 3.6591090695206048 0.8617986916395357 0.10018452105465946 48.030600583203345 0.18650698642579291 -9.225245375122851 -11.953395391902486 -16.96524562465892 0.3222704697951512 -0.23176555409401634 0.21505501604190413 118.43685990623345 -80.22822161367017 80.71952395085836 -1.1695042632773107 31.56018679598622 0.33472099751758533 2.8291019202597165 -1.0966494101651352 16.032911142573838
-9.400708321481943 84.54372882843018 129.12344662472606 7.939868660123566 -18.585062552367877 -33.565666940085364 -10.060340161541752 46.318145799781504 16.657967366731093 -4.745536034375758 -3.8842986989086326 2.9162043345371274 -7.516470356116353 14.897894211963214 -3.6423349786926997 9.400679637728274 -18.58689133551815 -6.232704711987545 0.1884103413679786 -0.04932650560792138 0.08262686612269377 -0.06666456729002851 0.14379068987184226 -0.28106369840862633 0.05405354346231234 -0.02246310479799678 -0.036352704686774304 34.248344347628134 49.27404335179334 22.483112983396687 -26.016113708950407 -24.074915890224837 57.37412861305154 -0.45351442232679745 5.530697015319989 0.4439181132646353 0.1565183738641908 0.1621451690798119 -0.20560454219069235 0.011646219586812211 -0.07483032524704321 0.038279101512248885 -0.23325031982570077 0.10712180545642389 0.176904460824269 7.734238131197516 5.018466124741236 -0.14908189868363364 0.24700664097922378 -0.2305825706658554 0.3249487577234425 2.3155007229787303 0.6930812797525848 0.1304785177773552 0.15067765498933075 0.03744992721917991 -0.11100348733910675 10.311521222042618 0.5062487120828791 0.05941690948742518 -0.21189151787827754 0.14741629302150255 0.24879369594253414 1.8454159415603646 -0.41748165263868936 0.24085154663955805 -0.31947756275485073 -0.2989884893486934 -0.01215282752415675 -69.49972246544016 25.87143834949849 -0.5704598540786979 25.594523697525954 -23.58533817580208 -55.57382735161958 2.178956703733713 -16.80065684868183 1.617685908687915 -0.05770293221214866 0.28910115019486526 0.1625566346164523 0.0791444968424054 -0.23570932132903757 0.18539684056182784 -0.19311890302705614 0.007555389841224144 -0.024979655981176244 -7.652477351737879 5.769341263599295 -0.21919795266034 0.13022091826002521 0.18998710121004664 -0.07206743368649372 -2.7293566123852004 0.6889213743829297 -0.028414040514502616 0.1443693349605893 -0.06061419362416082 -0.008476825048941176 -10.632097858284459 0.2822153856965668 0.22786845092484806 0.22965153050461806 -0.1129241578780555 -0.4553573994639373 -1.8903724601208 0.04348749428035384 0.039289862787704986 0.20327288636277924 -0.344615913912524 -0.32169737423510486 -0.5008923496697082 5.858544387933308 0.6033050598585257 -0.08843873011635316 45.84094780322939 -0.13548606029517946 -10.028006046010912 -11.84528374262494 -18.09308402645186 0.13728877666881326 0.01594000733637015 0.08352147416161998 133.0343811815197 -77.94146061917156 94.8402843616994 -1.008478284726029 26.977078636488887 0.41114675890520835 2.972011675811186 0.2612831237267256 16.675889783113206
-9.157208912074566 84.28439497947693 131.1097233556211 7.41097040042269 -19.130763931200633 -34.67278596303107 -8.72856170264234 46.416790806869415 15.494678575598494 -4.9831216033337125 -4.206748087643526 2.882266191768392 -7.049448914540738 15.33354587534143 -3.8477234627900376 8.908475715569645 -18.9916722513952 -5.983997033739871 0.36602674269151564 -0.19983100462962172 0.03665590438795271 -0.20404250994402218 0.035285024056550325 -0.1924768919255014 -0.024771695397247866 0.03058708120719804 -0.09105494603251926 37.23164120349548 49.03944684437091 19.56340177360758 -26.26519021741326 -24.483173372389423 58.54424247071228 -0.1163126787583223 5.153203985837608 -0.04720642556172 0.17173998403809312 0.2187652495042491 -0.20966146111426837 0.024757621472297937 -0.2057112638964738 -0.0899796314652786 -0.19794677955319734 -0.06464325818252786 0.1373983264997979 7.794665668558265 5.297861416042955 -0.08127903767974018 0.06679487449278766 -0.1794020955850987 0.5218449688049273 2.3089117248637834 0.6128086811192166 0.07535857101023494 0.4207382121297574 0.17629630718387343 -0.09875973292162421 10.336547035161544 0.5953597889456554 -0.035208637995637254 -0.5061226737483513 0.14210422011623092 0.39745233634103855 1.83748203650916 -0.48636347008803327 0.19581488007808068 -0.1292429739090969 -0.11215186625416804 0.027266542053514028 -69.21755369044858 24.939749320289973 -1.6694562879973787 24.996096673395286 -21.33803347659134 -52.47133003435717 1.151469682382421 -12.711672748273546 1.055786736238476 0.17486532919190287 0.15170634551135814 0.2092447128531918 0.1938366064984364 -0.15345655480574746 0.11828660342845598 -0.22065032835431975 0.18124123074083043 -0.12681670928900854 -7.885962245872887 5.677986629676729 -0.39770195841086137 0.20852754299034046 0.3070328513653817 -0.06212238477026426 -2.64624751089472 0.706895123905524 -0.2565617821433807 0.3124417208577971 -0.07620111219695304 0.0945040715014567 -10.449265647034265 0.37042538451700385 0.069688953710169 -0.02929812312519614 -0.308105030982515 -0.3598886437834956 -1.793879389508268 -0.16083057110799603 0.12378122381146678 0.21453640191265919 -0.26604846133327886 -0.06573752919275795 -0.7502403581520712 8.014427858877072 0.4558135280344472 -0.5737826877490563 45.878052805895486 -0.2727880170946567 -10.333670671747322 -12.255133512639786 -18.67171716236783 0.03200178413903693 -0.007896925980151227 -0.0927738191660485 151.97241937245738 -74.06015098179846 117.5389085964302 -0.45018892061379456 33.181181931327004 0.21241365382381328 2.623975117784955 0.1343700980982493 14.417895837851399
